<svg width="500" height="153" viewBox="0 0 500 153" fill="none" xmlns="http://www.w3.org/2000/svg">
<path d="M152.864 31.2118C155.381 31.2118 157.322 31.4891 158.688 32.0438C160.053 32.5558 161.226 33.1105 162.208 33.7078C162.72 34.0065 163.125 34.2411 163.424 34.4118C163.765 34.5398 164.085 34.6038 164.384 34.6038C164.81 34.6038 165.109 34.3691 165.28 33.8998C165.493 33.4305 165.664 32.7265 165.792 31.7878H167.264C167.221 32.5985 167.157 33.5798 167.072 34.7318C167.029 35.8411 166.986 37.3131 166.944 39.1478C166.944 40.9825 166.944 43.3931 166.944 46.3798H165.472C165.301 44.1611 164.789 42.0065 163.936 39.9158C163.082 37.8251 161.866 36.1185 160.288 34.7958C158.752 33.4305 156.853 32.7478 154.592 32.7478C152.544 32.7478 150.858 33.3238 149.536 34.4758C148.213 35.6278 147.552 37.2278 147.552 39.2758C147.552 40.9825 147.978 42.4545 148.832 43.6918C149.685 44.8865 150.922 46.0598 152.544 47.2118C154.208 48.3638 156.213 49.7505 158.56 51.3718C160.608 52.6945 162.442 54.0171 164.064 55.3398C165.685 56.6625 166.986 58.1558 167.968 59.8198C168.949 61.4838 169.44 63.4678 169.44 65.7718C169.44 68.5878 168.693 70.9131 167.2 72.7478C165.749 74.5825 163.829 75.9691 161.44 76.9078C159.05 77.8038 156.426 78.2518 153.568 78.2518C150.922 78.2518 148.81 77.9958 147.232 77.4838C145.653 76.9718 144.33 76.4385 143.264 75.8838C142.325 75.2865 141.6 74.9878 141.088 74.9878C140.661 74.9878 140.341 75.2225 140.128 75.6918C139.957 76.1611 139.808 76.8651 139.68 77.8038H138.208C138.293 76.7798 138.336 75.5851 138.336 74.2198C138.378 72.8545 138.4 71.0838 138.4 68.9078C138.442 66.6891 138.464 63.8945 138.464 60.5238H139.936C140.106 63.3398 140.576 65.9851 141.344 68.4598C142.154 70.8918 143.37 72.8545 144.992 74.3478C146.656 75.8411 148.853 76.5878 151.583 76.5878C153.077 76.5878 154.4 76.3318 155.552 75.8198C156.746 75.2651 157.706 74.4545 158.432 73.3878C159.157 72.3211 159.52 70.9985 159.52 69.4198C159.52 67.6278 159.093 66.0705 158.24 64.7478C157.429 63.4251 156.298 62.1878 154.848 61.0358C153.44 59.8838 151.797 58.7105 149.92 57.5158C147.914 56.1931 146.037 54.8705 144.288 53.5478C142.538 52.2251 141.13 50.7105 140.064 49.0038C139.04 47.2971 138.528 45.2705 138.528 42.9238C138.528 40.2358 139.189 38.0385 140.512 36.3318C141.877 34.5825 143.648 33.3025 145.824 32.4918C148.042 31.6385 150.389 31.2118 152.864 31.2118ZM186.591 33.7718V44.2678H194.143V45.5478H186.591V71.4038C186.591 72.6838 186.825 73.6011 187.295 74.1558C187.764 74.6678 188.468 74.9238 189.407 74.9238C190.175 74.9238 190.943 74.6465 191.711 74.0918C192.479 73.4945 193.161 72.4918 193.759 71.0838L194.847 71.6598C194.164 73.5798 193.119 75.1585 191.711 76.3958C190.345 77.6331 188.468 78.2518 186.079 78.2518C184.671 78.2518 183.433 78.0598 182.367 77.6758C181.3 77.3345 180.404 76.8011 179.679 76.0758C178.74 75.1371 178.121 73.9851 177.823 72.6198C177.524 71.2118 177.375 69.3985 177.375 67.1798V45.5478H171.998V44.2678H177.375V35.8198C179.167 35.8198 180.809 35.6705 182.303 35.3718C183.839 35.0305 185.268 34.4971 186.591 33.7718ZM227.971 43.5638V70.3798C227.971 72.2998 228.269 73.7291 228.867 74.6678C229.464 75.5638 230.531 76.0118 232.067 76.0118V77.3558C230.744 77.2278 229.421 77.1638 228.099 77.1638C226.307 77.1638 224.643 77.2278 223.107 77.3558C221.571 77.4838 220.12 77.7185 218.755 78.0598V72.2998C217.731 74.4331 216.301 75.9691 214.467 76.9078C212.675 77.8038 210.669 78.2518 208.451 78.2518C206.659 78.2518 205.208 78.0171 204.099 77.5478C202.989 77.0785 202.115 76.4811 201.475 75.7558C200.749 74.9451 200.237 73.8785 199.939 72.5558C199.64 71.2331 199.491 69.5265 199.491 67.4358V51.2438C199.491 49.3238 199.192 47.9158 198.595 47.0198C198.04 46.0811 196.973 45.6118 195.395 45.6118V44.2678C196.76 44.3958 198.083 44.4598 199.363 44.4598C201.155 44.4598 202.819 44.3958 204.355 44.2678C205.933 44.0971 207.384 43.8625 208.707 43.5638V70.0598C208.707 71.1265 208.792 72.0651 208.963 72.8758C209.176 73.6865 209.56 74.3265 210.115 74.7958C210.669 75.2225 211.48 75.4358 212.547 75.4358C213.699 75.4358 214.723 75.1158 215.619 74.4758C216.557 73.8358 217.304 72.9611 217.859 71.8518C218.456 70.6998 218.755 69.4198 218.755 68.0118V51.2438C218.755 49.3238 218.456 47.9158 217.859 47.0198C217.304 46.0811 216.237 45.6118 214.659 45.6118V44.2678C216.024 44.3958 217.347 44.4598 218.627 44.4598C220.419 44.4598 222.083 44.3958 223.619 44.2678C225.197 44.0971 226.648 43.8625 227.971 43.5638ZM266.399 27.2438V70.3158C266.399 72.2358 266.698 73.6651 267.295 74.6038C267.892 75.4998 268.959 75.9478 270.495 75.9478V77.2918C269.172 77.1638 267.85 77.0998 266.527 77.0998C264.735 77.0998 263.05 77.1638 261.471 77.2918C259.935 77.4198 258.506 77.6545 257.183 77.9958V34.9238C257.183 33.0038 256.884 31.5958 256.287 30.6998C255.732 29.7611 254.666 29.2918 253.087 29.2918V27.9478C254.452 28.0758 255.775 28.1398 257.055 28.1398C258.804 28.1398 260.468 28.0758 262.047 27.9478C263.626 27.7771 265.076 27.5425 266.399 27.2438ZM250.079 43.3718C251.956 43.3718 253.599 43.6918 255.007 44.3318C256.458 44.9291 257.588 45.9531 258.399 47.4038L257.631 48.1078C257.076 47.0838 256.33 46.3585 255.391 45.9318C254.495 45.4625 253.535 45.2278 252.511 45.2278C250.335 45.2278 248.607 46.5078 247.327 49.0678C246.047 51.5851 245.428 55.4891 245.471 60.7798C245.471 64.4065 245.706 67.3078 246.175 69.4838C246.687 71.6171 247.391 73.1531 248.287 74.0918C249.226 75.0305 250.292 75.4998 251.487 75.4998C252.938 75.4998 254.239 74.9238 255.391 73.7718C256.543 72.6198 257.162 71.0625 257.247 69.0998L257.567 71.3398C256.927 73.6011 255.882 75.3291 254.431 76.5238C253.023 77.6758 251.167 78.2518 248.863 78.2518C246.346 78.2518 244.084 77.6331 242.079 76.3958C240.116 75.1585 238.58 73.2598 237.471 70.6998C236.362 68.0971 235.807 64.7478 235.807 60.6518C235.807 56.7691 236.426 53.5691 237.663 51.0518C238.9 48.4918 240.586 46.5718 242.719 45.2918C244.895 44.0118 247.348 43.3718 250.079 43.3718ZM289.673 43.3718C293.428 43.3718 296.372 44.4811 298.505 46.6998C300.638 48.9185 301.705 52.5451 301.705 57.5798H280.649L280.521 56.3638H293.641C293.684 54.2731 293.556 52.3531 293.257 50.6038C292.958 48.8118 292.489 47.3825 291.849 46.3158C291.209 45.2491 290.356 44.7158 289.289 44.7158C287.796 44.7158 286.516 45.6545 285.449 47.5318C284.425 49.4091 283.806 52.5238 283.593 56.8758L283.785 57.2598C283.742 57.7718 283.7 58.3051 283.657 58.8598C283.657 59.4145 283.657 59.9905 283.657 60.5878C283.657 63.5318 284.062 65.9211 284.873 67.7558C285.726 69.5905 286.793 70.9345 288.073 71.7878C289.353 72.5985 290.654 73.0038 291.977 73.0038C292.873 73.0038 293.79 72.8758 294.729 72.6198C295.71 72.3211 296.692 71.8091 297.673 71.0838C298.654 70.3158 299.572 69.2491 300.425 67.8838L301.577 68.2678C301.065 69.8891 300.254 71.4678 299.145 73.0038C298.036 74.5398 296.628 75.7985 294.921 76.7798C293.214 77.7611 291.166 78.2518 288.777 78.2518C285.876 78.2518 283.316 77.6331 281.097 76.3958C278.878 75.1585 277.129 73.2811 275.849 70.7638C274.612 68.2465 273.993 65.0465 273.993 61.1638C273.993 57.1958 274.654 53.8891 275.977 51.2438C277.342 48.5985 279.198 46.6358 281.545 45.3558C283.934 44.0331 286.644 43.3718 289.673 43.3718ZM328.844 43.3718C330.636 43.3718 332.087 43.6065 333.196 44.0758C334.348 44.5025 335.244 45.0998 335.884 45.8678C336.567 46.6785 337.057 47.7238 337.356 49.0038C337.697 50.2838 337.868 52.0118 337.868 54.1878V71.4038C337.868 73.1958 338.167 74.4118 338.764 75.0518C339.404 75.6918 340.471 76.0118 341.964 76.0118V77.3558C341.153 77.3131 339.937 77.2705 338.316 77.2278C336.695 77.1425 335.095 77.0998 333.516 77.0998C331.895 77.0998 330.295 77.1425 328.716 77.2278C327.18 77.2705 326.007 77.3131 325.196 77.3558V76.0118C326.476 76.0118 327.372 75.6918 327.884 75.0518C328.396 74.4118 328.652 73.1958 328.652 71.4038V51.4998C328.652 50.4331 328.545 49.5158 328.332 48.7478C328.119 47.9371 327.735 47.3185 327.18 46.8918C326.625 46.4225 325.793 46.1878 324.684 46.1878C323.532 46.1878 322.465 46.5078 321.484 47.1478C320.545 47.7878 319.777 48.6838 319.18 49.8358C318.625 50.9451 318.348 52.2038 318.348 53.6118V71.4038C318.348 73.1958 318.604 74.4118 319.116 75.0518C319.671 75.6918 320.567 76.0118 321.804 76.0118V77.3558C321.036 77.3131 319.905 77.2705 318.412 77.2278C316.961 77.1425 315.447 77.0998 313.868 77.0998C312.247 77.0998 310.583 77.1425 308.876 77.2278C307.169 77.2705 305.889 77.3131 305.036 77.3558V76.0118C306.529 76.0118 307.575 75.6918 308.172 75.0518C308.812 74.4118 309.132 73.1958 309.132 71.4038V51.2438C309.132 49.3238 308.833 47.9158 308.236 47.0198C307.681 46.0811 306.615 45.6118 305.036 45.6118V44.2678C306.401 44.3958 307.724 44.4598 309.004 44.4598C310.796 44.4598 312.46 44.3958 313.996 44.2678C315.575 44.0971 317.025 43.8625 318.348 43.5638V49.3238C319.415 47.1478 320.865 45.6118 322.7 44.7158C324.535 43.8198 326.583 43.3718 328.844 43.3718ZM357.341 33.7718V44.2678H364.893V45.5478H357.341V71.4038C357.341 72.6838 357.575 73.6011 358.045 74.1558C358.514 74.6678 359.218 74.9238 360.157 74.9238C360.925 74.9238 361.693 74.6465 362.461 74.0918C363.229 73.4945 363.911 72.4918 364.509 71.0838L365.597 71.6598C364.914 73.5798 363.869 75.1585 362.461 76.3958C361.095 77.6331 359.218 78.2518 356.829 78.2518C355.421 78.2518 354.183 78.0598 353.117 77.6758C352.05 77.3345 351.154 76.8011 350.429 76.0758C349.49 75.1371 348.871 73.9851 348.573 72.6198C348.274 71.2118 348.125 69.3985 348.125 67.1798V45.5478H342.748V44.2678H348.125V35.8198C349.917 35.8198 351.559 35.6705 353.053 35.3718C354.589 35.0305 356.018 34.4971 357.341 33.7718Z" fill="black"/>
<path d="M294.157 128.885H291.085C289.591 128.885 288.141 128.906 286.733 128.949C285.325 128.992 284.109 129.034 283.085 129.077L283.405 127.797C284.855 127.754 285.986 127.584 286.797 127.285C287.607 127.029 288.247 126.517 288.717 125.749C289.143 125.024 289.57 123.872 289.997 122.293L298.445 90.5491C298.829 89.0131 298.999 87.8611 298.957 87.0931C298.871 86.3251 298.487 85.8131 297.805 85.5571C297.122 85.3011 296.077 85.1305 294.669 85.0451L294.925 83.7651C295.906 83.8505 297.101 83.8931 298.509 83.8931C299.917 83.9358 301.367 83.9571 302.861 83.9571C304.525 83.9571 306.103 83.9358 307.597 83.8931C309.09 83.8931 310.285 83.8505 311.181 83.7651L310.925 85.0451C309.431 85.1305 308.301 85.3011 307.533 85.5571C306.722 85.8131 306.082 86.3251 305.613 87.0931C305.143 87.8611 304.717 89.0131 304.333 90.5491L295.053 125.045L321.613 83.4451H323.021L327.373 125.557L336.461 91.1891C336.845 89.6531 337.015 88.4371 336.973 87.5411C336.93 86.6878 336.525 86.0691 335.757 85.6851C334.989 85.3438 333.794 85.1305 332.173 85.0451L332.493 83.7651C332.962 83.8078 333.581 83.8291 334.349 83.8291C335.074 83.8718 335.842 83.8931 336.653 83.8931C337.463 83.9358 338.231 83.9571 338.957 83.9571C340.023 83.9571 341.111 83.9358 342.221 83.8931C343.33 83.8931 344.247 83.8505 344.973 83.7651L344.653 85.0451C343.159 85.1305 342.007 85.3438 341.197 85.6851C340.386 86.0691 339.746 86.6878 339.277 87.5411C338.765 88.4371 338.317 89.6531 337.933 91.1891L329.613 122.293C329.186 123.872 329.015 125.024 329.101 125.749C329.186 126.517 329.57 127.029 330.253 127.285C330.893 127.584 331.938 127.754 333.389 127.797L333.069 129.077C332.386 129.034 331.554 128.992 330.573 128.949C329.549 128.906 328.482 128.885 327.373 128.885C326.391 128.885 325.389 128.906 324.365 128.949C323.341 128.992 322.466 129.034 321.741 129.077L318.221 91.1251L294.157 128.885ZM275.638 128.309C275.425 129.418 274.87 130.378 273.974 131.189C273.035 132 272.033 132.405 270.966 132.405C269.857 132.405 269.003 132 268.406 131.189C267.766 130.378 267.553 129.418 267.766 128.309C267.979 127.2 268.555 126.24 269.494 125.429C270.39 124.618 271.393 124.213 272.502 124.213C273.569 124.213 274.422 124.618 275.062 125.429C275.659 126.24 275.851 127.2 275.638 128.309ZM277.622 111.221C276.726 113.866 277.025 115.189 278.518 115.189C279.499 115.189 280.374 114.656 281.142 113.589C281.91 112.522 282.721 110.88 283.574 108.661L284.47 106.293H285.686L284.022 110.965C283.382 112.757 282.614 114.122 281.718 115.061C280.822 116 279.883 116.64 278.902 116.981C277.878 117.365 276.939 117.557 276.086 117.557C274.721 117.557 273.718 117.28 273.078 116.725C272.438 116.17 272.054 115.445 271.926 114.549C271.798 113.653 271.841 112.672 272.054 111.605C272.267 110.581 272.545 109.578 272.886 108.597L279.734 89.2051C280.161 87.9678 280.31 86.9865 280.182 86.2611C280.011 85.5785 279.521 85.2371 278.71 85.2371C277.857 85.2371 277.046 85.7065 276.278 86.6451C275.51 87.5838 274.657 89.2905 273.718 91.7651L272.822 94.1331H271.606L273.27 89.4611C273.867 87.7971 274.593 86.4745 275.446 85.4931C276.299 84.5545 277.217 83.8931 278.198 83.5091C279.179 83.0825 280.161 82.8691 281.142 82.8691C282.977 82.8691 284.214 83.2958 284.854 84.1491C285.494 85.0025 285.729 86.1118 285.558 87.4771C285.387 88.8425 285.025 90.2931 284.47 91.8291L277.622 111.221ZM260.678 83.7651H266.246L258.566 111.221C258.139 112.672 258.011 113.696 258.182 114.293C258.31 114.89 258.736 115.189 259.462 115.189C260.4 115.189 261.254 114.698 262.022 113.717C262.79 112.736 263.6 111.05 264.454 108.661L265.286 106.293H266.502L264.902 110.965C264.262 112.757 263.515 114.122 262.662 115.061C261.766 116 260.848 116.64 259.91 116.981C258.928 117.365 258.011 117.557 257.158 117.557C255.878 117.557 254.982 117.28 254.47 116.725C253.915 116.17 253.616 115.445 253.574 114.549C253.488 113.653 253.552 112.672 253.766 111.605C253.936 110.581 254.15 109.578 254.406 108.597L260.678 83.7651ZM244.23 115.957C245.211 115.957 246.235 115.488 247.302 114.549C248.326 113.653 249.392 112.33 250.502 110.581C251.568 108.874 252.656 106.805 253.766 104.373C254.832 101.984 255.899 99.3171 256.966 96.3731C257.99 93.4291 258.992 90.2505 259.974 86.8371L258.374 95.0291C256.966 99.2105 255.664 102.73 254.47 105.589C253.232 108.448 252.016 110.752 250.822 112.501C249.627 114.293 248.411 115.573 247.174 116.341C245.894 117.152 244.55 117.557 243.142 117.557C241.947 117.557 241.03 117.216 240.39 116.533C239.707 115.85 239.366 114.976 239.366 113.909C239.366 113.056 239.579 112.266 240.006 111.541C240.432 110.858 240.987 110.304 241.67 109.877C242.31 109.493 243.035 109.301 243.846 109.301C244.571 109.301 245.19 109.493 245.702 109.877C246.171 110.304 246.406 110.88 246.406 111.605C246.406 112.288 246.278 112.885 246.022 113.397C245.766 113.952 245.424 114.421 244.998 114.805C244.571 115.189 244.08 115.488 243.526 115.701C243.611 115.786 243.718 115.85 243.846 115.893C243.931 115.936 244.059 115.957 244.23 115.957ZM233.428 83.7651H238.996L231.316 111.221C230.889 112.672 230.761 113.696 230.932 114.293C231.06 114.89 231.486 115.189 232.212 115.189C233.15 115.189 234.004 114.698 234.772 113.717C235.54 112.736 236.35 111.05 237.204 108.661L238.036 106.293H239.252L237.652 110.965C237.012 112.757 236.265 114.122 235.412 115.061C234.516 116 233.598 116.64 232.66 116.981C231.678 117.365 230.761 117.557 229.908 117.557C228.628 117.557 227.732 117.28 227.22 116.725C226.665 116.17 226.366 115.445 226.324 114.549C226.238 113.653 226.302 112.672 226.516 111.605C226.686 110.581 226.9 109.578 227.156 108.597L233.428 83.7651ZM216.98 115.957C217.961 115.957 218.985 115.488 220.052 114.549C221.076 113.653 222.142 112.33 223.252 110.581C224.318 108.874 225.406 106.805 226.516 104.373C227.582 101.984 228.649 99.3171 229.716 96.3731C230.74 93.4291 231.742 90.2505 232.724 86.8371L231.124 95.0291C229.716 99.2105 228.414 102.73 227.22 105.589C225.982 108.448 224.766 110.752 223.572 112.501C222.377 114.293 221.161 115.573 219.924 116.341C218.644 117.152 217.3 117.557 215.892 117.557C214.697 117.557 213.78 117.216 213.14 116.533C212.457 115.85 212.116 114.976 212.116 113.909C212.116 113.056 212.329 112.266 212.756 111.541C213.182 110.858 213.737 110.304 214.42 109.877C215.06 109.493 215.785 109.301 216.596 109.301C217.321 109.301 217.94 109.493 218.452 109.877C218.921 110.304 219.156 110.88 219.156 111.605C219.156 112.288 219.028 112.885 218.772 113.397C218.516 113.952 218.174 114.421 217.748 114.805C217.321 115.189 216.83 115.488 216.276 115.701C216.361 115.786 216.468 115.85 216.596 115.893C216.681 115.936 216.809 115.957 216.98 115.957ZM195.716 116.277C197.081 116.277 198.404 115.722 199.684 114.613C200.921 113.546 202.073 112.074 203.14 110.197C204.164 108.362 205.081 106.293 205.892 103.989C206.66 101.685 207.257 99.2958 207.684 96.8211C208.11 94.3465 208.324 91.9785 208.324 89.7171C208.324 87.7971 208.025 86.3891 207.428 85.4931C206.788 84.5971 205.87 84.1491 204.676 84.1491C203.31 84.1491 202.009 84.6825 200.772 85.7491C199.492 86.8585 198.318 88.3305 197.252 90.1651C196.185 92.0425 195.268 94.1331 194.5 96.4371C193.732 98.7411 193.134 101.109 192.708 103.541C192.281 106.016 192.068 108.405 192.068 110.709C192.068 112.672 192.366 114.08 192.964 114.933C193.561 115.829 194.478 116.277 195.716 116.277ZM213.828 92.9171C213.828 94.7945 213.572 96.8425 213.06 99.0611C212.548 101.28 211.78 103.477 210.756 105.653C209.732 107.829 208.494 109.813 207.044 111.605C205.55 113.397 203.822 114.826 201.86 115.893C199.897 117.002 197.721 117.557 195.332 117.557C192.686 117.557 190.574 116.725 188.996 115.061C187.374 113.44 186.564 110.922 186.564 107.509C186.564 105.632 186.82 103.584 187.332 101.365C187.844 99.1465 188.612 96.9491 189.636 94.7731C190.66 92.5971 191.918 90.6131 193.412 88.8211C194.862 87.0291 196.569 85.5785 198.532 84.4691C200.494 83.4025 202.67 82.8691 205.06 82.8691C207.705 82.8691 209.838 83.7011 211.46 85.3651C213.038 87.0291 213.828 89.5465 213.828 92.9171ZM176.178 83.7651L181.746 83.7651L174.066 111.221C173.639 112.672 173.511 113.696 173.682 114.293C173.81 114.89 174.236 115.189 174.962 115.189C175.9 115.189 176.754 114.698 177.522 113.717C178.29 112.736 179.1 111.05 179.954 108.661L180.786 106.293H182.002L180.402 110.965C179.762 112.757 179.015 114.122 178.162 115.061C177.266 116 176.348 116.64 175.41 116.981C174.428 117.365 173.511 117.557 172.658 117.557C171.378 117.557 170.482 117.28 169.97 116.725C169.415 116.17 169.116 115.445 169.074 114.549C168.988 113.653 169.052 112.672 169.266 111.605C169.436 110.581 169.65 109.578 169.906 108.597L176.178 83.7651ZM159.73 115.957C160.711 115.957 161.735 115.488 162.802 114.549C163.826 113.653 164.892 112.33 166.002 110.581C167.068 108.874 168.156 106.805 169.266 104.373C170.332 101.984 171.399 99.3171 172.466 96.3731C173.49 93.4291 174.492 90.2505 175.474 86.8371L173.874 95.0291C172.466 99.2105 171.164 102.73 169.97 105.589C168.732 108.448 167.516 110.752 166.322 112.501C165.127 114.293 163.911 115.573 162.674 116.341C161.394 117.152 160.05 117.557 158.642 117.557C157.447 117.557 156.53 117.216 155.89 116.533C155.207 115.85 154.866 114.976 154.866 113.909C154.866 113.056 155.079 112.266 155.506 111.541C155.932 110.858 156.487 110.304 157.17 109.877C157.81 109.493 158.535 109.301 159.346 109.301C160.071 109.301 160.69 109.493 161.202 109.877C161.671 110.304 161.906 110.88 161.906 111.605C161.906 112.288 161.778 112.885 161.522 113.397C161.266 113.952 160.924 114.421 160.498 114.805C160.071 115.189 159.58 115.488 159.026 115.701C159.111 115.786 159.218 115.85 159.346 115.893C159.431 115.936 159.559 115.957 159.73 115.957Z" fill="#CECACA"/>
<path d="M294.157 128.885H291.085C289.591 128.885 288.141 128.906 286.733 128.949C285.325 128.992 284.109 129.034 283.085 129.077L283.405 127.797C284.855 127.754 285.986 127.584 286.797 127.285C287.607 127.029 288.247 126.517 288.717 125.749C289.143 125.024 289.57 123.872 289.997 122.293L298.445 90.5491C298.829 89.0131 298.999 87.8611 298.957 87.0931C298.871 86.3251 298.487 85.8131 297.805 85.5571C297.122 85.3011 296.077 85.1305 294.669 85.0451L294.925 83.7651C295.906 83.8505 297.101 83.8931 298.509 83.8931C299.917 83.9358 301.367 83.9571 302.861 83.9571C304.525 83.9571 306.103 83.9358 307.597 83.8931C309.09 83.8931 310.285 83.8505 311.181 83.7651L310.925 85.0451C309.431 85.1305 308.301 85.3011 307.533 85.5571C306.722 85.8131 306.082 86.3251 305.613 87.0931C305.143 87.8611 304.717 89.0131 304.333 90.5491L295.053 125.045L321.613 83.4451H323.021L327.373 125.557L336.461 91.1891C336.845 89.6531 337.015 88.4371 336.973 87.5411C336.93 86.6878 336.525 86.0691 335.757 85.6851C334.989 85.3438 333.794 85.1305 332.173 85.0451L332.493 83.7651C332.962 83.8078 333.581 83.8291 334.349 83.8291C335.074 83.8718 335.842 83.8931 336.653 83.8931C337.463 83.9358 338.231 83.9571 338.957 83.9571C340.023 83.9571 341.111 83.9358 342.221 83.8931C343.33 83.8931 344.247 83.8505 344.973 83.7651L344.653 85.0451C343.159 85.1305 342.007 85.3438 341.197 85.6851C340.386 86.0691 339.746 86.6878 339.277 87.5411C338.765 88.4371 338.317 89.6531 337.933 91.1891L329.613 122.293C329.186 123.872 329.015 125.024 329.101 125.749C329.186 126.517 329.57 127.029 330.253 127.285C330.893 127.584 331.938 127.754 333.389 127.797L333.069 129.077C332.386 129.034 331.554 128.992 330.573 128.949C329.549 128.906 328.482 128.885 327.373 128.885C326.391 128.885 325.389 128.906 324.365 128.949C323.341 128.992 322.466 129.034 321.741 129.077L318.221 91.1251L294.157 128.885ZM275.638 128.309C275.425 129.418 274.87 130.378 273.974 131.189C273.035 132 272.033 132.405 270.966 132.405C269.857 132.405 269.003 132 268.406 131.189C267.766 130.378 267.553 129.418 267.766 128.309C267.979 127.2 268.555 126.24 269.494 125.429C270.39 124.618 271.393 124.213 272.502 124.213C273.569 124.213 274.422 124.618 275.062 125.429C275.659 126.24 275.851 127.2 275.638 128.309ZM277.622 111.221C276.726 113.866 277.025 115.189 278.518 115.189C279.499 115.189 280.374 114.656 281.142 113.589C281.91 112.522 282.721 110.88 283.574 108.661L284.47 106.293H285.686L284.022 110.965C283.382 112.757 282.614 114.122 281.718 115.061C280.822 116 279.883 116.64 278.902 116.981C277.878 117.365 276.939 117.557 276.086 117.557C274.721 117.557 273.718 117.28 273.078 116.725C272.438 116.17 272.054 115.445 271.926 114.549C271.798 113.653 271.841 112.672 272.054 111.605C272.267 110.581 272.545 109.578 272.886 108.597L279.734 89.2051C280.161 87.9678 280.31 86.9865 280.182 86.2611C280.011 85.5785 279.521 85.2371 278.71 85.2371C277.857 85.2371 277.046 85.7065 276.278 86.6451C275.51 87.5838 274.657 89.2905 273.718 91.7651L272.822 94.1331H271.606L273.27 89.4611C273.867 87.7971 274.593 86.4745 275.446 85.4931C276.299 84.5545 277.217 83.8931 278.198 83.5091C279.179 83.0825 280.161 82.8691 281.142 82.8691C282.977 82.8691 284.214 83.2958 284.854 84.1491C285.494 85.0025 285.729 86.1118 285.558 87.4771C285.387 88.8425 285.025 90.2931 284.47 91.8291L277.622 111.221ZM260.678 83.7651H266.246L258.566 111.221C258.139 112.672 258.011 113.696 258.182 114.293C258.31 114.89 258.736 115.189 259.462 115.189C260.4 115.189 261.254 114.698 262.022 113.717C262.79 112.736 263.6 111.05 264.454 108.661L265.286 106.293H266.502L264.902 110.965C264.262 112.757 263.515 114.122 262.662 115.061C261.766 116 260.848 116.64 259.91 116.981C258.928 117.365 258.011 117.557 257.158 117.557C255.878 117.557 254.982 117.28 254.47 116.725C253.915 116.17 253.616 115.445 253.574 114.549C253.488 113.653 253.552 112.672 253.766 111.605C253.936 110.581 254.15 109.578 254.406 108.597L260.678 83.7651ZM244.23 115.957C245.211 115.957 246.235 115.488 247.302 114.549C248.326 113.653 249.392 112.33 250.502 110.581C251.568 108.874 252.656 106.805 253.766 104.373C254.832 101.984 255.899 99.3171 256.966 96.3731C257.99 93.4291 258.992 90.2505 259.974 86.8371L258.374 95.0291C256.966 99.2105 255.664 102.73 254.47 105.589C253.232 108.448 252.016 110.752 250.822 112.501C249.627 114.293 248.411 115.573 247.174 116.341C245.894 117.152 244.55 117.557 243.142 117.557C241.947 117.557 241.03 117.216 240.39 116.533C239.707 115.85 239.366 114.976 239.366 113.909C239.366 113.056 239.579 112.266 240.006 111.541C240.432 110.858 240.987 110.304 241.67 109.877C242.31 109.493 243.035 109.301 243.846 109.301C244.571 109.301 245.19 109.493 245.702 109.877C246.171 110.304 246.406 110.88 246.406 111.605C246.406 112.288 246.278 112.885 246.022 113.397C245.766 113.952 245.424 114.421 244.998 114.805C244.571 115.189 244.08 115.488 243.526 115.701C243.611 115.786 243.718 115.85 243.846 115.893C243.931 115.936 244.059 115.957 244.23 115.957ZM233.428 83.7651H238.996L231.316 111.221C230.889 112.672 230.761 113.696 230.932 114.293C231.06 114.89 231.486 115.189 232.212 115.189C233.15 115.189 234.004 114.698 234.772 113.717C235.54 112.736 236.35 111.05 237.204 108.661L238.036 106.293H239.252L237.652 110.965C237.012 112.757 236.265 114.122 235.412 115.061C234.516 116 233.598 116.64 232.66 116.981C231.678 117.365 230.761 117.557 229.908 117.557C228.628 117.557 227.732 117.28 227.22 116.725C226.665 116.17 226.366 115.445 226.324 114.549C226.238 113.653 226.302 112.672 226.516 111.605C226.686 110.581 226.9 109.578 227.156 108.597L233.428 83.7651ZM216.98 115.957C217.961 115.957 218.985 115.488 220.052 114.549C221.076 113.653 222.142 112.33 223.252 110.581C224.318 108.874 225.406 106.805 226.516 104.373C227.582 101.984 228.649 99.3171 229.716 96.3731C230.74 93.4291 231.742 90.2505 232.724 86.8371L231.124 95.0291C229.716 99.2105 228.414 102.73 227.22 105.589C225.982 108.448 224.766 110.752 223.572 112.501C222.377 114.293 221.161 115.573 219.924 116.341C218.644 117.152 217.3 117.557 215.892 117.557C214.697 117.557 213.78 117.216 213.14 116.533C212.457 115.85 212.116 114.976 212.116 113.909C212.116 113.056 212.329 112.266 212.756 111.541C213.182 110.858 213.737 110.304 214.42 109.877C215.06 109.493 215.785 109.301 216.596 109.301C217.321 109.301 217.94 109.493 218.452 109.877C218.921 110.304 219.156 110.88 219.156 111.605C219.156 112.288 219.028 112.885 218.772 113.397C218.516 113.952 218.174 114.421 217.748 114.805C217.321 115.189 216.83 115.488 216.276 115.701C216.361 115.786 216.468 115.85 216.596 115.893C216.681 115.936 216.809 115.957 216.98 115.957ZM195.716 116.277C197.081 116.277 198.404 115.722 199.684 114.613C200.921 113.546 202.073 112.074 203.14 110.197C204.164 108.362 205.081 106.293 205.892 103.989C206.66 101.685 207.257 99.2958 207.684 96.8211C208.11 94.3465 208.324 91.9785 208.324 89.7171C208.324 87.7971 208.025 86.3891 207.428 85.4931C206.788 84.5971 205.87 84.1491 204.676 84.1491C203.31 84.1491 202.009 84.6825 200.772 85.7491C199.492 86.8585 198.318 88.3305 197.252 90.1651C196.185 92.0425 195.268 94.1331 194.5 96.4371C193.732 98.7411 193.134 101.109 192.708 103.541C192.281 106.016 192.068 108.405 192.068 110.709C192.068 112.672 192.366 114.08 192.964 114.933C193.561 115.829 194.478 116.277 195.716 116.277ZM213.828 92.9171C213.828 94.7945 213.572 96.8425 213.06 99.0611C212.548 101.28 211.78 103.477 210.756 105.653C209.732 107.829 208.494 109.813 207.044 111.605C205.55 113.397 203.822 114.826 201.86 115.893C199.897 117.002 197.721 117.557 195.332 117.557C192.686 117.557 190.574 116.725 188.996 115.061C187.374 113.44 186.564 110.922 186.564 107.509C186.564 105.632 186.82 103.584 187.332 101.365C187.844 99.1465 188.612 96.9491 189.636 94.7731C190.66 92.5971 191.918 90.6131 193.412 88.8211C194.862 87.0291 196.569 85.5785 198.532 84.4691C200.494 83.4025 202.67 82.8691 205.06 82.8691C207.705 82.8691 209.838 83.7011 211.46 85.3651C213.038 87.0291 213.828 89.5465 213.828 92.9171ZM176.178 83.7651L181.746 83.7651L174.066 111.221C173.639 112.672 173.511 113.696 173.682 114.293C173.81 114.89 174.236 115.189 174.962 115.189C175.9 115.189 176.754 114.698 177.522 113.717C178.29 112.736 179.1 111.05 179.954 108.661L180.786 106.293H182.002L180.402 110.965C179.762 112.757 179.015 114.122 178.162 115.061C177.266 116 176.348 116.64 175.41 116.981C174.428 117.365 173.511 117.557 172.658 117.557C171.378 117.557 170.482 117.28 169.97 116.725C169.415 116.17 169.116 115.445 169.074 114.549C168.988 113.653 169.052 112.672 169.266 111.605C169.436 110.581 169.65 109.578 169.906 108.597L176.178 83.7651ZM159.73 115.957C160.711 115.957 161.735 115.488 162.802 114.549C163.826 113.653 164.892 112.33 166.002 110.581C167.068 108.874 168.156 106.805 169.266 104.373C170.332 101.984 171.399 99.3171 172.466 96.3731C173.49 93.4291 174.492 90.2505 175.474 86.8371L173.874 95.0291C172.466 99.2105 171.164 102.73 169.97 105.589C168.732 108.448 167.516 110.752 166.322 112.501C165.127 114.293 163.911 115.573 162.674 116.341C161.394 117.152 160.05 117.557 158.642 117.557C157.447 117.557 156.53 117.216 155.89 116.533C155.207 115.85 154.866 114.976 154.866 113.909C154.866 113.056 155.079 112.266 155.506 111.541C155.932 110.858 156.487 110.304 157.17 109.877C157.81 109.493 158.535 109.301 159.346 109.301C160.071 109.301 160.69 109.493 161.202 109.877C161.671 110.304 161.906 110.88 161.906 111.605C161.906 112.288 161.778 112.885 161.522 113.397C161.266 113.952 160.924 114.421 160.498 114.805C160.071 115.189 159.58 115.488 159.026 115.701C159.111 115.786 159.218 115.85 159.346 115.893C159.431 115.936 159.559 115.957 159.73 115.957Z" fill="url(#paint0_linear_201_5)" fill-opacity="0.2"/>
<defs>
<linearGradient id="paint0_linear_201_5" x1="249.734" y1="152.765" x2="249.734" y2="0" gradientUnits="userSpaceOnUse">
<stop stop-opacity="0"/>
<stop offset="1"/>
</linearGradient>
</defs>
</svg>
