<svg width="507" height="718" viewBox="0 0 507 718" fill="none" xmlns="http://www.w3.org/2000/svg">
<path d="M143.71 115.28C156.297 115.28 166.004 116.667 172.83 119.44C179.657 122 185.524 124.773 190.43 127.76C192.99 129.253 195.017 130.427 196.51 131.28C198.217 131.92 199.817 132.24 201.31 132.24C203.444 132.24 204.937 131.067 205.79 128.72C206.857 126.373 207.71 122.853 208.35 118.16H215.71C215.497 122.213 215.177 127.12 214.75 132.88C214.537 138.427 214.324 145.787 214.11 154.96C214.11 164.133 214.11 176.187 214.11 191.12H206.75C205.897 180.027 203.337 169.253 199.07 158.8C194.804 148.347 188.724 139.813 180.83 133.2C173.15 126.373 163.657 122.96 152.35 122.96C142.11 122.96 133.684 125.84 127.07 131.6C120.457 137.36 117.15 145.36 117.15 155.6C117.15 164.133 119.284 171.493 123.55 177.68C127.817 183.653 134.004 189.52 142.11 195.28C150.43 201.04 160.457 207.973 172.19 216.08C182.43 222.693 191.604 229.307 199.71 235.92C207.817 242.533 214.324 250 219.23 258.32C224.137 266.64 226.59 276.56 226.59 288.08C226.59 302.16 222.857 313.787 215.39 322.96C208.137 332.133 198.537 339.067 186.59 343.76C174.644 348.24 161.524 350.48 147.23 350.48C134.004 350.48 123.444 349.2 115.55 346.64C107.657 344.08 101.044 341.413 95.7102 338.64C91.0169 335.653 87.3902 334.16 84.8302 334.16C82.6969 334.16 81.0969 335.333 80.0302 337.68C79.1769 340.027 78.4302 343.547 77.7902 348.24H70.4302C70.8569 343.12 71.0702 337.147 71.0702 330.32C71.2835 323.493 71.3902 314.64 71.3902 303.76C71.6035 292.667 71.7102 278.693 71.7102 261.84H79.0702C79.9235 275.92 82.2702 289.147 86.1102 301.52C90.1635 313.68 96.2435 323.493 104.35 330.96C112.67 338.427 123.657 342.16 137.31 342.16C144.777 342.16 151.39 340.88 157.15 338.32C163.124 335.547 167.924 331.493 171.55 326.16C175.177 320.827 176.99 314.213 176.99 306.32C176.99 297.36 174.857 289.573 170.59 282.96C166.537 276.347 160.884 270.16 153.63 264.4C146.59 258.64 138.377 252.773 128.99 246.8C118.964 240.187 109.577 233.573 100.83 226.96C92.0835 220.347 85.0435 212.773 79.7102 204.24C74.5902 195.707 72.0302 185.573 72.0302 173.84C72.0302 160.4 75.3369 149.413 81.9502 140.88C88.7769 132.133 97.6302 125.733 108.51 121.68C119.604 117.413 131.337 115.28 143.71 115.28Z" fill="black"/>
<path d="M143.71 115.28C156.297 115.28 166.004 116.667 172.83 119.44C179.657 122 185.524 124.773 190.43 127.76C192.99 129.253 195.017 130.427 196.51 131.28C198.217 131.92 199.817 132.24 201.31 132.24C203.444 132.24 204.937 131.067 205.79 128.72C206.857 126.373 207.71 122.853 208.35 118.16H215.71C215.497 122.213 215.177 127.12 214.75 132.88C214.537 138.427 214.324 145.787 214.11 154.96C214.11 164.133 214.11 176.187 214.11 191.12H206.75C205.897 180.027 203.337 169.253 199.07 158.8C194.804 148.347 188.724 139.813 180.83 133.2C173.15 126.373 163.657 122.96 152.35 122.96C142.11 122.96 133.684 125.84 127.07 131.6C120.457 137.36 117.15 145.36 117.15 155.6C117.15 164.133 119.284 171.493 123.55 177.68C127.817 183.653 134.004 189.52 142.11 195.28C150.43 201.04 160.457 207.973 172.19 216.08C182.43 222.693 191.604 229.307 199.71 235.92C207.817 242.533 214.324 250 219.23 258.32C224.137 266.64 226.59 276.56 226.59 288.08C226.59 302.16 222.857 313.787 215.39 322.96C208.137 332.133 198.537 339.067 186.59 343.76C174.644 348.24 161.524 350.48 147.23 350.48C134.004 350.48 123.444 349.2 115.55 346.64C107.657 344.08 101.044 341.413 95.7102 338.64C91.0169 335.653 87.3902 334.16 84.8302 334.16C82.6969 334.16 81.0969 335.333 80.0302 337.68C79.1769 340.027 78.4302 343.547 77.7902 348.24H70.4302C70.8569 343.12 71.0702 337.147 71.0702 330.32C71.2835 323.493 71.3902 314.64 71.3902 303.76C71.6035 292.667 71.7102 278.693 71.7102 261.84H79.0702C79.9235 275.92 82.2702 289.147 86.1102 301.52C90.1635 313.68 96.2435 323.493 104.35 330.96C112.67 338.427 123.657 342.16 137.31 342.16C144.777 342.16 151.39 340.88 157.15 338.32C163.124 335.547 167.924 331.493 171.55 326.16C175.177 320.827 176.99 314.213 176.99 306.32C176.99 297.36 174.857 289.573 170.59 282.96C166.537 276.347 160.884 270.16 153.63 264.4C146.59 258.64 138.377 252.773 128.99 246.8C118.964 240.187 109.577 233.573 100.83 226.96C92.0835 220.347 85.0435 212.773 79.7102 204.24C74.5902 195.707 72.0302 185.573 72.0302 173.84C72.0302 160.4 75.3369 149.413 81.9502 140.88C88.7769 132.133 97.6302 125.733 108.51 121.68C119.604 117.413 131.337 115.28 143.71 115.28Z" fill="black" fill-opacity="0.2"/>
<path d="M138.365 602.72C125.779 602.72 116.072 601.333 109.245 598.56C102.419 596 96.5519 593.227 91.6453 590.24C89.0853 588.747 87.0586 587.573 85.5653 586.72C83.8586 586.08 82.2586 585.76 80.7653 585.76C78.6319 585.76 77.1386 586.933 76.2853 589.28C75.2186 591.627 74.3653 595.147 73.7253 599.84H66.3653C66.5786 595.787 66.8986 590.88 67.3253 585.12C67.5386 579.573 67.752 572.213 67.9653 563.04C67.9653 553.867 67.9653 541.813 67.9653 526.88H75.3253C76.1786 537.973 78.7386 548.747 83.0053 559.2C87.2719 569.653 93.3519 578.187 101.245 584.8C108.925 591.627 118.419 595.04 129.725 595.04C139.965 595.04 148.392 592.16 155.005 586.4C161.619 580.64 164.925 572.64 164.925 562.4C164.925 553.867 162.792 546.507 158.525 540.32C154.259 534.347 148.072 528.48 139.965 522.72C131.645 516.96 121.619 510.027 109.885 501.92C99.6453 495.307 90.4719 488.693 82.3653 482.08C74.2586 475.467 67.7519 468 62.8453 459.68C57.9386 451.36 55.4853 441.44 55.4853 429.92C55.4853 415.84 59.2186 404.213 66.6853 395.04C73.9386 385.867 83.5386 378.933 95.4853 374.24C107.432 369.76 120.552 367.52 134.845 367.52C148.072 367.52 158.632 368.8 166.525 371.36C174.419 373.92 181.032 376.587 186.365 379.36C191.059 382.347 194.685 383.84 197.245 383.84C199.379 383.84 200.979 382.667 202.045 380.32C202.899 377.973 203.645 374.453 204.285 369.76H211.645C211.219 374.88 211.005 380.853 211.005 387.68C210.792 394.507 210.685 403.36 210.685 414.24C210.472 425.333 210.365 439.307 210.365 456.16H203.005C202.152 442.08 199.805 428.853 195.965 416.48C191.912 404.32 185.832 394.507 177.725 387.04C169.405 379.573 158.419 375.84 144.765 375.84C137.299 375.84 130.685 377.12 124.925 379.68C118.952 382.453 114.152 386.507 110.525 391.84C106.899 397.173 105.085 403.787 105.085 411.68C105.085 420.64 107.219 428.427 111.485 435.04C115.539 441.653 121.192 447.84 128.445 453.6C135.485 459.36 143.699 465.227 153.085 471.2C163.112 477.813 172.499 484.427 181.245 491.04C189.992 497.653 197.032 505.227 202.365 513.76C207.485 522.293 210.045 532.427 210.045 544.16C210.045 557.6 206.739 568.587 200.125 577.12C193.299 585.867 184.445 592.267 173.565 596.32C162.472 600.587 150.739 602.72 138.365 602.72Z" fill="#CECACA"/>
<path d="M138.365 602.72C125.779 602.72 116.072 601.333 109.245 598.56C102.419 596 96.5519 593.227 91.6453 590.24C89.0853 588.747 87.0586 587.573 85.5653 586.72C83.8586 586.08 82.2586 585.76 80.7653 585.76C78.6319 585.76 77.1386 586.933 76.2853 589.28C75.2186 591.627 74.3653 595.147 73.7253 599.84H66.3653C66.5786 595.787 66.8986 590.88 67.3253 585.12C67.5386 579.573 67.752 572.213 67.9653 563.04C67.9653 553.867 67.9653 541.813 67.9653 526.88H75.3253C76.1786 537.973 78.7386 548.747 83.0053 559.2C87.2719 569.653 93.3519 578.187 101.245 584.8C108.925 591.627 118.419 595.04 129.725 595.04C139.965 595.04 148.392 592.16 155.005 586.4C161.619 580.64 164.925 572.64 164.925 562.4C164.925 553.867 162.792 546.507 158.525 540.32C154.259 534.347 148.072 528.48 139.965 522.72C131.645 516.96 121.619 510.027 109.885 501.92C99.6453 495.307 90.4719 488.693 82.3653 482.08C74.2586 475.467 67.7519 468 62.8453 459.68C57.9386 451.36 55.4853 441.44 55.4853 429.92C55.4853 415.84 59.2186 404.213 66.6853 395.04C73.9386 385.867 83.5386 378.933 95.4853 374.24C107.432 369.76 120.552 367.52 134.845 367.52C148.072 367.52 158.632 368.8 166.525 371.36C174.419 373.92 181.032 376.587 186.365 379.36C191.059 382.347 194.685 383.84 197.245 383.84C199.379 383.84 200.979 382.667 202.045 380.32C202.899 377.973 203.645 374.453 204.285 369.76H211.645C211.219 374.88 211.005 380.853 211.005 387.68C210.792 394.507 210.685 403.36 210.685 414.24C210.472 425.333 210.365 439.307 210.365 456.16H203.005C202.152 442.08 199.805 428.853 195.965 416.48C191.912 404.32 185.832 394.507 177.725 387.04C169.405 379.573 158.419 375.84 144.765 375.84C137.299 375.84 130.685 377.12 124.925 379.68C118.952 382.453 114.152 386.507 110.525 391.84C106.899 397.173 105.085 403.787 105.085 411.68C105.085 420.64 107.219 428.427 111.485 435.04C115.539 441.653 121.192 447.84 128.445 453.6C135.485 459.36 143.699 465.227 153.085 471.2C163.112 477.813 172.499 484.427 181.245 491.04C189.992 497.653 197.032 505.227 202.365 513.76C207.485 522.293 210.045 532.427 210.045 544.16C210.045 557.6 206.739 568.587 200.125 577.12C193.299 585.867 184.445 592.267 173.565 596.32C162.472 600.587 150.739 602.72 138.365 602.72Z" fill="url(#paint0_linear_3_6)" fill-opacity="0.2"/>
<path d="M506.385 126.52V132.72C499.772 132.927 494.812 133.753 491.505 135.2C488.199 136.44 485.925 138.92 484.685 142.64C483.652 146.153 483.135 151.733 483.135 159.38V313.14C483.135 320.58 483.652 326.16 484.685 329.88C485.925 333.6 488.199 336.08 491.505 337.32C494.812 338.56 499.772 339.387 506.385 339.8V346C500.599 345.587 493.262 345.38 484.375 345.38C475.695 345.173 466.809 345.07 457.715 345.07C447.795 345.07 438.495 345.173 429.815 345.38C421.135 345.38 414.109 345.587 408.735 346V339.8C415.762 339.387 421.032 338.56 424.545 337.32C428.265 336.08 430.745 333.6 431.985 329.88C433.225 326.16 433.845 320.58 433.845 313.14V145.43H436.015L359.135 346.31H354.175L270.475 146.67V295.16C270.475 306.527 271.095 315.31 272.335 321.51C273.575 327.503 276.262 331.843 280.395 334.53C284.735 337.01 291.452 338.767 300.545 339.8V346C296.619 345.587 291.452 345.38 285.045 345.38C278.639 345.173 272.645 345.07 267.065 345.07C262.312 345.07 257.455 345.173 252.495 345.38C247.535 345.38 243.402 345.587 240.095 346V339.8C246.709 338.767 251.669 337.01 254.975 334.53C258.282 332.05 260.452 328.02 261.485 322.44C262.725 316.653 263.345 308.8 263.345 298.88V159.38C263.345 151.733 262.725 146.153 261.485 142.64C260.452 138.92 258.179 136.44 254.665 135.2C251.359 133.753 246.502 132.927 240.095 132.72V126.52C243.402 126.727 247.535 126.933 252.495 127.14C257.455 127.347 262.312 127.45 267.065 127.45C275.952 127.45 284.632 127.347 293.105 127.14C301.785 126.933 309.432 126.727 316.045 126.52L381.145 283.69L373.395 290.82L435.705 127.45C439.219 127.45 442.835 127.45 446.555 127.45C450.275 127.45 453.995 127.45 457.715 127.45C466.809 127.45 475.695 127.347 484.375 127.14C493.262 126.933 500.599 126.727 506.385 126.52Z" fill="black"/>
<path d="M506.385 126.52V132.72C499.772 132.927 494.812 133.753 491.505 135.2C488.199 136.44 485.925 138.92 484.685 142.64C483.652 146.153 483.135 151.733 483.135 159.38V313.14C483.135 320.58 483.652 326.16 484.685 329.88C485.925 333.6 488.199 336.08 491.505 337.32C494.812 338.56 499.772 339.387 506.385 339.8V346C500.599 345.587 493.262 345.38 484.375 345.38C475.695 345.173 466.809 345.07 457.715 345.07C447.795 345.07 438.495 345.173 429.815 345.38C421.135 345.38 414.109 345.587 408.735 346V339.8C415.762 339.387 421.032 338.56 424.545 337.32C428.265 336.08 430.745 333.6 431.985 329.88C433.225 326.16 433.845 320.58 433.845 313.14V145.43H436.015L359.135 346.31H354.175L270.475 146.67V295.16C270.475 306.527 271.095 315.31 272.335 321.51C273.575 327.503 276.262 331.843 280.395 334.53C284.735 337.01 291.452 338.767 300.545 339.8V346C296.619 345.587 291.452 345.38 285.045 345.38C278.639 345.173 272.645 345.07 267.065 345.07C262.312 345.07 257.455 345.173 252.495 345.38C247.535 345.38 243.402 345.587 240.095 346V339.8C246.709 338.767 251.669 337.01 254.975 334.53C258.282 332.05 260.452 328.02 261.485 322.44C262.725 316.653 263.345 308.8 263.345 298.88V159.38C263.345 151.733 262.725 146.153 261.485 142.64C260.452 138.92 258.179 136.44 254.665 135.2C251.359 133.753 246.502 132.927 240.095 132.72V126.52C243.402 126.727 247.535 126.933 252.495 127.14C257.455 127.347 262.312 127.45 267.065 127.45C275.952 127.45 284.632 127.347 293.105 127.14C301.785 126.933 309.432 126.727 316.045 126.52L381.145 283.69L373.395 290.82L435.705 127.45C439.219 127.45 442.835 127.45 446.555 127.45C450.275 127.45 453.995 127.45 457.715 127.45C466.809 127.45 475.695 127.347 484.375 127.14C493.262 126.933 500.599 126.727 506.385 126.52Z" fill="black" fill-opacity="0.2"/>
<path d="M222.86 593.48V587.28C229.473 587.073 234.433 586.247 237.74 584.8C241.047 583.56 243.32 581.08 244.56 577.36C245.593 573.847 246.11 568.267 246.11 560.62V406.86C246.11 399.42 245.593 393.84 244.56 390.12C243.32 386.4 241.047 383.92 237.74 382.68C234.433 381.44 229.473 380.613 222.86 380.2V374C228.647 374.413 235.983 374.62 244.87 374.62C253.55 374.827 262.437 374.93 271.53 374.93C281.45 374.93 290.75 374.827 299.43 374.62C308.11 374.62 315.137 374.413 320.51 374V380.2C313.483 380.613 308.213 381.44 304.7 382.68C300.98 383.92 298.5 386.4 297.26 390.12C296.02 393.84 295.4 399.42 295.4 406.86V574.57H293.23L370.11 373.69H375.07L458.77 573.33V424.84C458.77 413.473 458.15 404.69 456.91 398.49C455.67 392.497 452.983 388.157 448.85 385.47C444.51 382.99 437.793 381.233 428.7 380.2V374C432.627 374.413 437.793 374.62 444.2 374.62C450.607 374.827 456.6 374.93 462.18 374.93C466.933 374.93 471.79 374.827 476.75 374.62C481.71 374.62 485.843 374.413 489.15 374V380.2C482.537 381.233 477.577 382.99 474.27 385.47C470.963 387.95 468.793 391.98 467.76 397.56C466.52 403.347 465.9 411.2 465.9 421.12V560.62C465.9 568.267 466.52 573.847 467.76 577.36C468.793 581.08 471.067 583.56 474.58 584.8C477.887 586.247 482.743 587.073 489.15 587.28V593.48C485.843 593.273 481.71 593.067 476.75 592.86C471.79 592.653 466.933 592.55 462.18 592.55C453.293 592.55 444.613 592.653 436.14 592.86C427.46 593.067 419.813 593.273 413.2 593.48L348.1 436.31L355.85 429.18L293.54 592.55C290.027 592.55 286.41 592.55 282.69 592.55C278.97 592.55 275.25 592.55 271.53 592.55C262.437 592.55 253.55 592.653 244.87 592.86C235.983 593.067 228.647 593.273 222.86 593.48Z" fill="#CECACA"/>
<path d="M222.86 593.48V587.28C229.473 587.073 234.433 586.247 237.74 584.8C241.047 583.56 243.32 581.08 244.56 577.36C245.593 573.847 246.11 568.267 246.11 560.62V406.86C246.11 399.42 245.593 393.84 244.56 390.12C243.32 386.4 241.047 383.92 237.74 382.68C234.433 381.44 229.473 380.613 222.86 380.2V374C228.647 374.413 235.983 374.62 244.87 374.62C253.55 374.827 262.437 374.93 271.53 374.93C281.45 374.93 290.75 374.827 299.43 374.62C308.11 374.62 315.137 374.413 320.51 374V380.2C313.483 380.613 308.213 381.44 304.7 382.68C300.98 383.92 298.5 386.4 297.26 390.12C296.02 393.84 295.4 399.42 295.4 406.86V574.57H293.23L370.11 373.69H375.07L458.77 573.33V424.84C458.77 413.473 458.15 404.69 456.91 398.49C455.67 392.497 452.983 388.157 448.85 385.47C444.51 382.99 437.793 381.233 428.7 380.2V374C432.627 374.413 437.793 374.62 444.2 374.62C450.607 374.827 456.6 374.93 462.18 374.93C466.933 374.93 471.79 374.827 476.75 374.62C481.71 374.62 485.843 374.413 489.15 374V380.2C482.537 381.233 477.577 382.99 474.27 385.47C470.963 387.95 468.793 391.98 467.76 397.56C466.52 403.347 465.9 411.2 465.9 421.12V560.62C465.9 568.267 466.52 573.847 467.76 577.36C468.793 581.08 471.067 583.56 474.58 584.8C477.887 586.247 482.743 587.073 489.15 587.28V593.48C485.843 593.273 481.71 593.067 476.75 592.86C471.79 592.653 466.933 592.55 462.18 592.55C453.293 592.55 444.613 592.653 436.14 592.86C427.46 593.067 419.813 593.273 413.2 593.48L348.1 436.31L355.85 429.18L293.54 592.55C290.027 592.55 286.41 592.55 282.69 592.55C278.97 592.55 275.25 592.55 271.53 592.55C262.437 592.55 253.55 592.653 244.87 592.86C235.983 593.067 228.647 593.273 222.86 593.48Z" fill="url(#paint1_linear_3_6)" fill-opacity="0.2"/>
<defs>
<linearGradient id="paint0_linear_3_6" x1="114.623" y1="718" x2="114.623" y2="470" gradientUnits="userSpaceOnUse">
<stop stop-opacity="0"/>
<stop offset="0.994792"/>
</linearGradient>
<linearGradient id="paint1_linear_3_6" x1="417.453" y1="709" x2="417.453" y2="479" gradientUnits="userSpaceOnUse">
<stop stop-opacity="0"/>
<stop offset="1"/>
</linearGradient>
</defs>
</svg>
